<?xml version="1.0" encoding="utf-8"?>
<!-- Generator: Adobe Illustrator 16.0.0, SVG Export Plug-In . SVG Version: 6.00 Build 0)  -->
<!DOCTYPE svg PUBLIC "-//W3C//DTD SVG 1.1//EN" "http://www.w3.org/Graphics/SVG/1.1/DTD/svg11.dtd">
<svg version="1.1" xmlns="http://www.w3.org/2000/svg" xmlns:xlink="http://www.w3.org/1999/xlink" x="0px" y="0px"
	 width="24.452px" height="27.481px" viewBox="0 0 24.452 27.481" enable-background="new 0 0 24.452 27.481" xml:space="preserve">
<g id="Outer_Layer">
	<g>
		<g>
			<path fill-rule="evenodd" clip-rule="evenodd" fill="#333333" d="M24.464,0 M24.464,27.481 M0.012,0 M12.561,1.192
				c3.067,3.15,5.95,5.89,8.565,8.867c1.818,2.072,2.619,4.616,2.174,7.497c-0.66,4.263-3.934,7.996-7.988,8.9
				c-4.755,1.063-9.272-0.637-11.772-4.426c-2.648-4.012-2.662-8.204,0.497-12.031C6.549,6.955,9.525,4.294,12.561,1.192z"/>
			<path fill-rule="evenodd" clip-rule="evenodd" fill="#333333" d="M10.2,1.688L10.2,1.688z"/>
		</g>
	</g>
	<g>
		<g>
			<path fill-rule="evenodd" clip-rule="evenodd" d="M24.464,0 M24.464,27.481 M0.012,0 M12.561,1.192
				c3.067,3.15,5.95,5.89,8.565,8.867c1.818,2.072,2.619,4.616,2.174,7.497c-0.66,4.263-3.934,7.996-7.988,8.9
				c-4.755,1.063-9.272-0.637-11.772-4.426c-2.648-4.012-2.662-8.204,0.497-12.031C6.549,6.955,9.525,4.294,12.561,1.192z"/>
			<path fill-rule="evenodd" clip-rule="evenodd" d="M10.2,1.688L10.2,1.688z"/>
		</g>
	</g>
</g>
<g id="Internal_Drop">
	<g>
		<g>
			<linearGradient id="SVGID_1_" gradientUnits="userSpaceOnUse" x1="12.2368" y1="1.665" x2="12.2368" y2="26.2427">
				<stop  offset="0.335" style="stop-color:#CCE0F4"/>
				<stop  offset="0.4437" style="stop-color:#C9DEF2"/>
				<stop  offset="0.5374" style="stop-color:#BED7EE"/>
				<stop  offset="0.6255" style="stop-color:#ACCBE6"/>
				<stop  offset="0.7102" style="stop-color:#93BBDA"/>
				<stop  offset="0.7926" style="stop-color:#73A6CB"/>
				<stop  offset="0.8731" style="stop-color:#4B8CB9"/>
				<stop  offset="0.9506" style="stop-color:#1D6EA4"/>
				<stop  offset="0.9944" style="stop-color:#005B97"/>
				<stop  offset="1" style="stop-color:#1E9CD7"/>
				<stop  offset="1" style="stop-color:#0075BE"/>
			</linearGradient>
			<path fill-rule="evenodd" clip-rule="evenodd" fill="url(#SVGID_1_)" d="M23.029,1.665 M23.029,26.242 M1.445,1.665
				 M12.522,2.731c2.708,2.816,5.253,5.268,7.56,7.93c1.604,1.854,2.312,4.128,1.919,6.705c-0.583,3.812-3.473,7.15-7.05,7.96
				c-4.198,0.948-8.186-0.571-10.393-3.958c-2.336-3.589-2.349-7.339,0.439-10.761C7.215,7.885,9.842,5.505,12.522,2.731z"/>
			<radialGradient id="SVGID_2_" cx="10.4385" cy="3.1748" r="0" gradientUnits="userSpaceOnUse">
				<stop  offset="0" style="stop-color:#61E0F4"/>
				<stop  offset="0.1483" style="stop-color:#58D7F0"/>
				<stop  offset="0.3947" style="stop-color:#3FBDE5"/>
				<stop  offset="0.6512" style="stop-color:#1E9CD7"/>
				<stop  offset="0.9391" style="stop-color:#0075BE"/>
				<stop  offset="0.9944" style="stop-color:#005B97"/>
			</radialGradient>
			<path fill-rule="evenodd" clip-rule="evenodd" fill="url(#SVGID_2_)" d="M10.438,3.175L10.438,3.175z"/>
		</g>
	</g>
</g>
<g id="Text">
	<g>
		<g>
			<g>
			</g>
			<path fill-rule="evenodd" clip-rule="evenodd" fill="none" d="M1.223-5.152"/>
			<path fill-rule="evenodd" clip-rule="evenodd" fill="none" d="M1.223,22.331"/>
			<path fill-rule="evenodd" clip-rule="evenodd" fill="none" d="M-23.229-5.152"/>
			<path fill-rule="evenodd" clip-rule="evenodd" fill="#333333" d="M-13.041-3.464L-13.041-3.464z"/>
		</g>
	</g>
	<path fill="none" d="M-26.975,17.664c6.197,0.08,11.198,5.241,11.198,11.596"/>
	<path fill="none" d="M-38.361,29.599c0-6.404,4.978-11.596,11.242-11.596c0.048,0,0.346,0,0.346,0"/>
	<text transform="matrix(1 0 0 1 7.4321 29.4902)" font-family="'Haettenschweiler'" font-size="3">reefminder</text>
</g>
<g id="Top">
	<path fill-rule="evenodd" clip-rule="evenodd" d="M12.514,2.035L9.239,5.24c0,0,3.033,3.409,6.498,0"/>
</g>
</svg>
