<?xml version="1.0" encoding="utf-8"?>
<!-- Generator: Adobe Illustrator 16.0.0, SVG Export Plug-In . SVG Version: 6.00 Build 0)  -->
<!DOCTYPE svg PUBLIC "-//W3C//DTD SVG 1.1//EN" "http://www.w3.org/Graphics/SVG/1.1/DTD/svg11.dtd">
<svg version="1.1" xmlns="http://www.w3.org/2000/svg" xmlns:xlink="http://www.w3.org/1999/xlink" x="0px" y="0px"
	 width="305.357px" height="171.429px" viewBox="0 0 305.357 171.429" enable-background="new 0 0 305.357 171.429"
	 xml:space="preserve">
<g id="Layer_4">
	<path d="M-93.363,19.328"/>
	<path d="M-43.177,73.958"/>
	<path fill="#6AFF00" d="M-89.473,108.217"/>
	<ellipse cx="253.776" cy="77.042" rx="6.534" ry="6.457"/>
</g>
<g id="backdrop" display="none">
	<path display="inline" fill="#333333" d="M-102.214-49.857v291h560v-291H-102.214z M321.036,161.893H90.113
		c-0.619,1.182-1.653,2.116-2.998,2.321c-3.84,0.586-7.688,1.137-11.579,1.179c-3.382,0.036-4.986-2.695-4.821-5.313
		c-2.149-2.881-0.878-8.188,3.821-8.188h246.5C327.484,151.893,327.484,161.893,321.036,161.893z"/>
</g>
<g id="body">
	<path d="M92.128,154.893H290.7c7.833-14.216,12.341-30.817,12.341-48.563c0-52.531-39.442-93.783-88.056-95.118
		C132.708,8.953,101.003,90.441,40.309,71.917c-6.448-1.968-10.039-5.541-9.607-4.048C39.893,99.604,62.441,130.695,92.128,154.893z
		"/>
	<rect x="93.786" y="157.143" fill="#000066" width="194" height="2"/>
</g>
<g id="drop2" display="none">
	<path display="inline" fill="#FFFFFF" d="M349.667,166.808"/>
	<path display="inline" fill="none" stroke="#000000" stroke-width="1.0774" stroke-miterlimit="10" d="M180.786,222.792
		c0,8.283-16.831,15-37.593,15c-20.762,0-37.592-6.717-37.592-15"/>
	<ellipse display="inline" fill="#FFFFFF" cx="69.068" cy="178.803" rx="8.987" ry="9.747"/>
	
		<ellipse display="inline" stroke="#000000" stroke-width="2.0294" stroke-miterlimit="10" cx="73.496" cy="178.841" rx="8.245" ry="8.783"/>
</g>
<g id="tail">
	<path d="M84.78,63.935c0-45.42-81.603-46.623-81.603-46.623c0,29.044,24.97,52.591,55.772,52.591
		C68.27,69.903,77.057,67.747,84.78,63.935c17.797-8.786,29.942-26.368,29.942-46.623c0,0-81.42,0.531-82.544,46.143"/>
	<circle fill="#FFFFFF" cx="253.637" cy="76.809" r="10.37"/>
	<ellipse cx="257.776" cy="79.042" rx="6.534" ry="6.456"/>
	<path fill="none" stroke="#FFFFFF" stroke-width="10.3827" stroke-miterlimit="10" d="M90.267,153.266"/>
	<path fill="none" stroke="#FFFFFF" stroke-width="10.3827" stroke-miterlimit="10" d="M243.499,78.978"/>
</g>
</svg>
